# Alias OBJ Model File
# Exported from SketchUp, (c) 2000-2012 Trimble Navigation Limited
# File units = meters

mtllib Lucky+Plaza.mtl

g Mesh1 Plaza1 Model

usemtl M_300000_05_04_2010_1
v -21.1061 10.2394 17.4826
vt 0 1
vn 0.722967 0 0.690882
v -21.1061 8.60011 17.4826
vt 0 0.866063
v -18.4742 8.60011 14.7285
vt 1 0.866063
v -18.4742 9.32418 14.7285
vt 1 0.925222
v -18.4742 10.2394 14.7285
vt 1 1
f 1/1/1 2/2/1 3/3/1 4/4/1 5/5/1 

usemtl M_300000_05_04_2010_1_7_
v -24.7444 10.2394 14.0058
vn -0.690882 0 0.722967
v -24.7444 8.60011 14.0058
f 6/1/2 7/2/2 2/3/2 1/5/2 

usemtl _2
v -24.7444 -2 14.0058
vt 0.074 -6.99605e-17
vn -0.722967 1.54559e-15 -0.690882
vt 0.074 0.492335
vt 0.074 0.568475
v -24.7444 13.0762 14.0058
vt 0.074 0.700233
v -21.4345 13.0762 10.5422
vt -0.0190622 0.700233
v 20.7987 13.0762 -33.6523
vt -1.2065 0.700233
v 20.7987 -2 -33.6523
vt -1.2065 -6.99605e-17
f 8/6/3 7/7/3 6/8/3 9/9/3 10/10/3 11/11/3 12/12/3 

usemtl M_300000_05_04_2010_1_7_
v -21.1061 -2 17.4826
vt 1 0
vt 0 0
f 13/13/2 2/3/2 7/2/2 8/14/2 

usemtl M_300000_05_04_2010_1
v -18.4742 -2 14.7285
f 14/13/1 3/3/1 2/2/1 13/14/1 

usemtl M_300000_05_04_2010_1_4_
v -10.7342 -2 22.1249
v -10.7342 4.83403 22.1249
vt 1 0.545347
v -14.5093 4.83403 18.5174
vt 0.512261 0.545347
v -18.3514 4.83403 14.8458
vt 0.0158597 0.545347
v -18.3514 9.32418 14.8458
vt 0.0158597 0.903655
vt 0 0.903655
vt 0 0.845876
f 14/14/2 15/13/2 16/15/2 17/16/2 18/17/2 19/18/2 4/19/2 3/20/2 

usemtl M_300000_05_04_2010_1_3_
vn -0.690882 -1.95314e-17 0.722967
v -10.4589 -2 22.388
v -10.4589 11.7389 22.388
vt 1 0.911294
v -10.4589 13.0762 22.388
v -10.7342 13.0762 22.1249
v -10.7342 10.5315 22.1249
vt 0 0.831212
v -10.7342 9.32418 22.1249
vt 0 0.751129
vt 0 0.453299
f 15/14/4 20/13/4 21/21/4 22/5/4 23/1/4 24/22/4 25/23/4 16/24/4 

usemtl _2
v 32.4522 -2 -22.516
vt 1.2065 0
v 32.4522 13.0762 -22.516
vt 1.2065 0.700233
v -9.78095 13.0762 21.6785
vt 0.0190622 0.700233
vt -6.66134e-16 0.700233
vt -6.66134e-16 0.638119
vt -6.66134e-16 0
f 26/25/1 27/26/1 28/27/1 22/28/1 21/29/1 20/30/1 

vt 0.023125 0.700233
vn 0.690882 2.74347e-15 -0.722967
v 26.6254 14.4416 -28.0841
vt -0.2025 0.763649
vt -0.428125 0.700233
vt -0.428125 -7.91953e-15
vt 0.023125 -7.91953e-15
f 11/31/5 29/32/5 27/33/5 26/34/5 12/35/5 

usemtl FrontColor
vt -1.21782e-11 975.905
vn 0.137659 -0.981705 0.13155
v -15.6077 14.4416 16.1103
vt -3739.96 975.905
vt -3739.96 253.694
vt -6.36646e-12 253.694
f 29/36/6 30/37/6 10/38/6 11/39/6 

vt -3.96698e-13 -1144.78
vn -0.137659 -0.981705 -0.13155
vt 3739.96 -1144.78
vt 3739.96 -422.565
vt 1.02608e-11 -422.565
f 27/40/7 28/41/7 30/42/7 29/43/7 

usemtl _2
vt 0.2025 0.763649
vn -0.690882 -1.50607e-15 0.722967
vt -0.023125 0.700233
v -14.8999 13.0762 16.7867
vt 0.229907 0.700233
vt 0.428125 0.700233
f 30/44/8 10/45/8 31/46/8 28/47/8 

usemtl FrontColor
vt -3739.96 796.951
vn -1.70663e-15 -1 1.72758e-15
vt -3739.96 1421.26
vt -3800 1421.26
vt -3800 1387.69
v -14.6165 13.0762 18.415
vt -3800 914.209
v -18.4742 13.0762 14.7285
vt -3800 443.727
v -21.1061 13.0762 17.4826
vt -4033.07 443.727
vt -4033.07 6.01376e-14
vt -3739.96 6.01376e-14
f 31/48/9 28/49/9 22/50/9 23/51/9 32/52/9 33/53/9 34/54/9 9/55/9 10/56/9 

usemtl M_300000_05_04_2010_1_5_
v -14.6165 10.5315 18.415
vt 0 -8.88178e-16
vn -0.690882 -2.47891e-16 0.722967
vt 1 -8.88178e-16
v -14.6165 11.8449 18.415
vt 0 0.516111
f 35/57/10 24/58/10 23/5/10 32/1/10 36/59/10 

usemtl M_300000_05_04_2010_1_9_
vn -0.690882 -3.84437e-30 0.722967
v -14.6165 9.32418 18.415
f 35/1/11 37/14/11 25/13/11 24/5/11 

usemtl M_300000_05_04_2010_1_4_
vn -0.690882 -3.13922e-30 0.722967
vt 0.498413 0.903655
vt 0.498413 1
v -18.4742 10.5315 14.7285
vt 0 0.97669
f 4/19/12 19/18/12 37/60/12 35/61/12 38/1/12 5/62/12 

f 18/17/2 17/16/2 37/60/2 19/18/2 

usemtl M_300000_05_04_2010_1_6_
vt 0.0276093 0
f 37/1/2 17/63/2 16/13/2 25/5/2 

usemtl M_300000_05_04_2010_1_1_
vt 1.44329e-15 0
vn -0.690882 -3.83284e-16 0.722967
vt 1 0.516111
vt 1.44329e-15 1
v -18.4742 12.9681 14.7285
vt 0 0.9575
v -18.4742 11.8449 14.7285
vt 1.44329e-15 0.516111
f 38/64/13 35/13/13 36/65/13 32/5/13 33/66/13 39/67/13 40/68/13 

usemtl M_300000_05_04_2010_1_2_
vt 1 0.565938
vn 0.722967 4.69204e-16 0.690882
vt 1 0.961876
vt 0 8.88178e-16
vt 1 8.88178e-16
vt 1 0.102972
f 40/69/14 39/70/14 33/5/14 34/1/14 1/71/14 5/72/14 38/73/14 

usemtl M_300000_05_04_2010_1_8_
vn -0.690882 3.44329e-16 0.722967
f 1/13/15 34/5/15 9/1/15 6/14/15 

