# Alias OBJ Model File
# Exported from SketchUp, (c) 2000-2012 Trimble Navigation Limited
# File units = meters

mtllib Majestic+Hotel.mtl

g Mesh1 Majestic1 Model

usemtl Maje
v 30.1227 -1.5 13.9992
vt 1.77636e-15 0
vn 0.998441 -4.20468e-16 0.0558215
v 30.3983 -1.5 9.0707
vt 1 1.11477e-16
v 30.3983 4.78971 9.0707
vt 1 1
v 30.1227 4.78971 13.9992
vt 0 1
f 1/1/1 2/2/1 3/3/1 4/4/1 

usemtl Maje15_
v 30.8646 23.6586 0.729528
vt 1 0.96477
vn 0.998441 1.04678e-17 0.0558215
v 30.0136 23.6586 15.9517
vt 0.507852 0.96477
v 29.985 4.78971 16.4634
vt 0.491308 0.241195
vt 0.570979 0.241195
vt 0.730322 0.241195
vt 0.730322 0
v 30.8646 -1.5 0.729528
vt 1 6.7219e-18
f 5/5/2 6/6/2 7/7/2 4/8/2 3/9/2 2/10/2 8/11/2 

usemtl FrontColor
v 16.6143 23.6586 -4.68336
vt -516.566 140.529
vn -4.076e-18 -1 -2.3083e-16
v 24.1495 23.6586 -13.413
vt -606.546 73.2933
v 25.7118 23.6586 -12.0513
vt -594.016 57.6613
v 26.5786 23.6586 -11.0226
vt -584.377 48.8423
v 27.3756 23.6586 -9.94204
vt -574.191 40.6622
v 28.0994 23.6586 -8.81418
vt -563.498 33.155
v 28.747 23.6586 -7.64368
vt -552.345 26.3518
v 29.3158 23.6586 -6.43539
vt -540.776 20.281
v 29.8033 23.6586 -5.19432
vt -528.841 14.9677
v 30.2075 23.6586 -3.92564
vt -516.589 10.434
v 30.5269 23.6586 -2.63459
vt -504.069 6.6986
v 30.7599 23.6586 -1.32656
vt -491.336 3.77711
v 30.9058 23.6586 -0.00695001
vt -478.44 1.68162
vt -471.176 1.68162
vt -321.03 1.68162
v 29.5696 23.6586 23.8931
vt -242.699 1.68162
v 29.5686 23.6586 23.9112
vt -242.52 1.68162
v 13.1173 23.6586 22.9915
vt -242.52 159.131
v 13.2094 23.6586 21.3446
vt -258.764 159.131
v 14.1509 23.6586 4.5059
vt -424.855 159.131
v 10.9943 23.6586 -1.8607
vt -485.722 192.643
f 9/12/3 10/13/3 11/14/3 12/15/3 13/16/3 14/17/3 15/18/3 16/19/3 17/20/3 18/21/3 19/22/3 20/23/3 21/24/3 5/25/3 6/26/3 22/27/3 23/28/3 24/29/3 25/30/3 26/31/3 27/32/3 

vt 442.01 254.954
vn 0.775567 7.55791e-17 0.631266
vt 329.684 254.954
v 16.6143 22.2481 -4.68336
vt 329.684 240.66
v 24.2305 22.2481 -13.5068
vt 443.217 240.66
v 24.2305 23.6586 -13.5068
vt 443.217 254.954
f 10/33/4 9/34/4 28/35/4 29/36/4 30/37/4 

vt 142.176 254.954
vn 0.472287 -1.26683e-15 0.881445
vt 81.6185 254.954
v 10.9943 22.2481 -1.8607
vt 81.6185 240.66
vt 142.176 240.66
f 9/38/5 27/39/5 31/40/5 28/41/5 

usemtl M_3_6_
v 14.1509 -1.5 4.5059
vt 1 1.2326e-32
vn -0.906954 -1.08981e-16 0.421229
vt 0 0.943935
v 10.9943 -1.5 -1.8607
vt 1.77636e-15 1.39347e-17
f 32/42/6 26/3/6 27/4/6 31/43/6 33/44/6 

usemtl M_3_2_
v 13.1173 -1.5 22.9915
vt 0.429171 0
vn -0.998441 2.30507e-16 -0.0558215
vt 0.429171 0.719834
vt 0.390936 0.719834
vt 0 0.719834
vt 0 5.01534e-18
f 34/45/7 24/46/7 25/47/7 26/48/7 32/49/7 

usemtl M_3_3_
v 4.22868 -1.5 22.4945
vt 1 6.96736e-18
vn 0.0558215 -1.02919e-15 -0.998441
v 4.22868 23.6586 22.4945
vt 1.33227e-15 0
f 35/50/8 36/3/8 24/4/8 34/51/8 

usemtl M_3_2_
v 2.9211 -1.5 45.8824
vt 0.972155 5.58233e-17
vn -0.998441 1.89879e-17 -0.0558215
v 2.85404 -1.5 47.0817
vt 1 6.5854e-17
v 2.85404 14.2455 47.0817
vt 1 0.450509
v 2.85404 33.4506 47.0817
v 4.22868 33.4506 22.4945
vt 0.429171 1
vt 0.429171 1.00961e-16
f 37/52/9 38/53/9 39/54/9 40/3/9 41/55/9 36/46/9 35/56/9 

usemtl FrontColor
vt -11.8301 244.201
vn -7.09769e-17 -1 4.34694e-15
v 28.261 -1.5 47.2991
vt -11.8301 1.68162
v 28.1939 -1.5 48.4985
vt 4.57454e-28 1.68162
vt -2.27374e-13 244.201
f 37/57/10 42/58/10 43/59/10 38/60/10 

usemtl Maje7_
vt 0 1.5328e-15
vn 0.998441 -5.78104e-15 0.0558215
vt 0.243354 -7.70372e-34
v 28.4695 -1.5 43.57
vt 1 1.39346e-16
v 28.4695 4.78971 43.57
v 28.4297 4.78971 44.2815
vt 0.855636 1
v 28.3118 4.78971 46.39
vt 0.427818 1
v 28.261 4.78971 47.2991
vt 0.243354 1
v 28.1939 4.78971 48.4985
vt 7.45967e-28 1
f 43/61/11 42/62/11 44/63/11 45/3/11 46/64/11 47/65/11 48/66/11 49/67/11 

usemtl Maje5_
vt 0 3.06561e-16
vn 0.998441 8.77119e-15 0.0558215
v 28.745 -1.5 38.6415
vt 1 0
v 28.745 4.78971 38.6415
v 28.7052 4.78971 39.353
v 28.5874 4.78971 41.4615
v 28.5867 4.78971 41.4739
vt 0.425298 1
f 44/68/12 50/69/12 51/3/12 52/64/12 53/65/12 54/70/12 45/4/12 

usemtl Maje6_
vn 0.998441 2.21967e-15 0.0558215
v 29.0021 -1.5 34.0436
vt 0.932932 3.62299e-16
v 29.0206 -1.5 33.7131
vt 1 4.73776e-16
v 29.0206 4.78971 33.7131
v 28.8629 4.78971 36.533
f 50/51/13 55/71/13 56/72/13 57/3/13 58/65/13 51/4/13 

usemtl Maje55_
vt 2.22045e-15 0
vn 0.998441 4.43949e-15 0.0558215
v 29.2961 -1.5 28.7846
vt 1 2.78692e-17
v 29.2961 4.78971 28.7846
v 29.1384 4.78971 31.6046
vt -4.44089e-16 1
f 56/73/14 59/74/14 60/3/14 61/65/14 57/75/14 

usemtl Maje2_
vt -4.44089e-16 4.83665e-16
vn 0.998441 3.66758e-15 0.0558215
v 29.5717 -1.5 23.8561
vt 1 1.49235e-16
v 29.5711 4.78971 23.8661
vt 0.997982 1
v 29.414 4.78971 26.6761
f 59/76/15 62/77/15 63/78/15 64/65/15 60/75/15 

v 29.5717 4.78971 23.8561
vn 0.998441 -1.66624e-15 0.0558215
f 65/3/16 63/78/16 62/69/16

usemtl Maje8_
v 29.5717 5.43611 23.8561
vn 0.998441 6.5372e-14 0.0558215
v 29.571 5.43611 23.8671
vt 0.999135 1
vt 0.999216 1.77636e-15
vt 1 -1.77636e-15
f 66/3/17 67/79/17 63/80/17 65/81/17 

usemtl Maje15_
vn 0.998441 1.47531e-15 0.0558215
vt 0.251099 0.96477
v 29.5696 21.8881 23.8931
vt 0.251099 0.896873
vt 0.25194 0.265982
vt 0.252295 0.265982
vt 0.252295 0.241195
v 29.8472 4.78971 18.9276
vt 0.411637 0.241195
f 7/7/18 6/6/18 22/82/18 68/83/18 67/84/18 66/85/18 65/86/18 69/87/18 

usemtl Maje16_
vt 1 0.658379
vn 0.998441 -8.12294e-15 0.0558215
vt 0.991568 0.658379
v 29.5686 21.8881 23.9112
vt 0.991568 0
f 22/88/19 23/89/19 70/90/19 68/69/19 

v 29.5696 24.5773 23.8931
vn 0.998441 2.1848e-14 0.0558215
v 29.5686 24.5773 23.9112
vt 0.991568 1
f 71/3/20 72/91/20 23/89/20 22/88/20 

usemtl Maje13_
v 29.5696 26.7828 23.8931
vn 0.998441 -1.00414e-15 0.0558215
v 29.5686 26.7828 23.9112
vt 0.991568 1.77636e-15
f 73/3/21 74/91/21 72/92/21 71/69/21 

v 29.4492 24.5773 26.0467
vt 0 0
vn 0.998441 -5.41799e-15 0.0558215
v 29.4492 26.7828 26.0467
vt 4.26326e-14 1
f 75/93/22 72/92/22 74/91/22 76/94/22 

usemtl Maje16_
v 29.5433 23.6586 24.3637
vt 0.781454 0.658379
vn 0.998441 2.90156e-14 0.0558215
v 29.4492 23.6586 26.0467
vt 0 0.658379
f 77/95/23 23/89/23 72/91/23 75/4/23 78/96/23 

v 29.4492 21.8881 26.0467
vt 1.06581e-14 0
vn 0.998441 -9.90093e-15 0.0558215
f 79/97/24 70/90/24 23/89/24 77/95/24 78/96/24 

usemtl Maje15_
v 29.4492 5.43611 26.0467
vt 0.181472 0.265982
vn 0.998441 1.79722e-15 0.0558215
vt 0.250512 0.896873
vt 0.181472 0.896873
v 29.4492 11.9482 26.0467
vt 0.181472 0.515704
f 80/98/25 67/84/25 68/83/25 70/99/25 79/100/25 81/101/25 

usemtl Maje8_
vt 0.77755 8.88178e-15
vn 0.998441 9.07146e-14 0.0558215
vt 0.999216 8.88178e-15
vt 0.827202 1
v 29.1354 5.43611 31.6596
vt 0.384433 1
v 28.8629 5.43611 36.533
vt 0 7.10543e-15
vt 0.22245 5.32907e-15
vt 0.388775 8.88178e-15
vt 0.611225 5.32907e-15
f 64/102/26 63/103/26 67/79/26 80/104/26 82/105/26 83/4/26 58/106/26 57/107/26 61/108/26 60/109/26 

usemtl Maje53_
vn 0.998441 -7.15895e-17 0.0558215
v 29.1354 11.9482 31.6596
f 80/69/27 81/3/27 84/4/27 82/93/27 

usemtl Maje15_
vn 0.998441 1.77998e-15 0.0558215
vt 0.181472 0.96477
vt 0.181472 1
v 29.1354 24.5773 31.6596
vt -1.11022e-16 1
vt 1.77636e-15 0.515704
f 81/101/28 79/100/28 78/110/28 75/111/28 85/112/28 84/113/28 

usemtl Maje14_
v 29.1354 26.7828 31.6596
vt 1.02141e-14 1
vn 0.998441 -1.15829e-14 0.0558215
f 86/114/29 85/93/29 75/69/29 76/3/29 

usemtl Maje12_
v 28.8216 26.7828 37.2726
vt 4.21885e-15 1
vn 0.998441 -2.62767e-15 0.0558215
v 28.8216 24.5773 37.2726
vt 2.22045e-16 0
v 29.0511 26.7828 33.1676
vt 0.731335 1
f 87/115/30 88/116/30 85/69/30 86/3/30 89/117/30 

usemtl Maje11_
v 28.5077 26.7828 42.8855
vn 0.998441 -1.68515e-15 0.0558215
v 28.5077 24.5773 42.8855
vt -1.11022e-16 0
f 90/112/31 91/118/31 88/69/31 87/3/31 

usemtl Maje10_
v 28.1939 26.7828 48.4985
vn 0.998441 2.14319e-15 0.0558215
v 28.1939 24.5773 48.4985
vt 1.02672e-15 0
f 92/4/32 93/119/32 91/69/32 90/3/32 

usemtl M_3_14_
v 15.4441 33.4506 47.7856
vt 0.496848 1
vn -0.0558215 1.58145e-15 0.998441
vt 2.22045e-16 1
vt 0 1.11022e-16
v 28.1939 14.2455 48.4985
vt 1 1.11022e-16
vt 1 0.537973
vt 1 0.652811
v 15.4441 26.7828 47.7856
vt 0.496848 0.652811
f 94/120/33 40/121/33 39/122/33 95/123/33 93/124/33 92/125/33 96/126/33 

usemtl FrontColor
v 16.8187 33.4506 23.1984
vt -242.52 123.706
vn -9.34504e-16 -1 2.70931e-16
v 26.7619 33.4506 23.7543
vt -242.52 28.5435
v 26.678 33.4506 25.2552
vt -227.715 28.5435
v 26.2444 33.4506 33.0107
vt -151.218 28.5435
v 16.3012 33.4506 32.4548
vt -151.218 123.706
vt -1.73152e-13 123.706
vt -1.73152e-13 244.201
vt -242.52 244.201
f 97/127/34 98/128/34 99/129/34 100/130/34 101/131/34 94/132/34 40/133/34 41/134/34 

usemtl Maje59_
vn 0.0558215 -5.26727e-31 -0.998441
v 26.7619 26.7828 23.7543
vt 0 1.77636e-15
v 16.8187 26.7828 23.1984
vt 1 8.88178e-16
f 97/3/35 98/4/35 102/135/35 103/136/35 

usemtl Maje56_
vt 0.837852 1
vn 0.998441 4.91441e-16 0.0558215
v 26.2444 26.7828 33.0107
vt 1 2.66454e-15
f 99/137/36 100/121/36 104/116/36 102/138/36 98/3/36 

usemtl Maje48_
vn -0.0558215 0 0.998441
vt -2.22045e-16 1
v 16.3012 26.7828 32.4548
vt -2.22045e-16 2.66454e-15
f 100/3/37 101/139/37 105/140/37 104/69/37 

usemtl Maje57_
vn 0.998441 0 0.0558215
vt 3.9443e-31 1
vt 3.9443e-31 8.88178e-16
vt 1 1.77636e-15
f 101/3/38 94/141/38 96/142/38 105/143/38 

usemtl FrontColor
vt -9.54924e-14 1.68162
vn -6.61488e-16 -1 4.37236e-16
vt -1.52336e-13 123.706
vt -151.218 1.68162
vt -110.728 1.68162
vt -55.3642 1.68162
f 92/144/39 96/145/39 105/131/39 104/130/39 89/146/39 87/147/39 90/148/39 

vn -8.73562e-16 -1 -2.19638e-15
vt -221.457 1.68162
vt -166.093 1.68162
f 89/146/40 104/130/40 102/128/40 74/28/40 76/149/40 86/150/40 

usemtl M_3_1_
vt 0.503152 1
vn 0.0558215 4.01963e-17 -0.998441
vt 0.503152 0.319056
vt 0.110762 0.319056
vt 1.17181e-15 0.319056
vt 9.37618e-16 0.0938233
vt 0.649222 0
f 97/151/41 103/152/41 102/153/41 74/154/41 72/155/41 23/93/41 24/156/41 36/69/41 41/3/41 

usemtl FrontColor
vn -2.78456e-16 -1 3.26585e-15
vt -238.056 1.68162
v 13.0921 23.6586 23.444
vt -238.056 159.131
f 24/29/42 23/28/42 77/157/42 106/158/42 

usemtl M_3
v 28.1939 5.43611 48.4985
vt 1 0.440512
vn -0.0558215 -5.5877e-16 0.998441
v 28.1939 11.9482 48.4985
vt 1 0.854095
vt 1 5.34366e-16
vt 1 0.39946
f 107/159/43 108/160/43 95/3/43 39/121/43 38/93/43 43/161/43 49/162/43 

usemtl Maje49_
v 28.5077 5.43611 42.8855
vn 0.998441 1.03783e-15 0.0558215
v 28.5077 11.9482 42.8855
vt 1.97215e-30 0
v 28.4266 5.43611 44.3365
vt 0.741487 0
f 109/69/44 110/3/44 108/4/44 107/163/44 111/164/44 

usemtl Maje3_
v 28.8216 5.43611 37.2726
vn 0.998441 1.12167e-15 0.0558215
v 28.8216 11.9482 37.2726
vt 3.9968e-15 0
v 28.7404 5.43611 38.7236
f 112/69/45 113/3/45 110/112/45 109/165/45 114/164/45 

usemtl Maje54_
vn 0.998441 8.62749e-16 0.0558215
vt 8.88178e-16 0
vt 0.131754 0
f 82/69/46 84/3/46 113/139/46 112/166/46 83/167/46 

usemtl Maje52_
vt 4.21885e-15 0
vn 0.998441 1.90642e-15 0.0558215
f 113/168/47 84/69/47 85/3/47 88/121/47 

usemtl Maje4_
vn 0.998441 1.13191e-15 0.0558215
f 113/69/48 88/3/48 91/112/48 110/118/48 

usemtl Maje60_
vt 0 0.181909
vn 0.998441 4.43462e-16 0.0558215
vt 5.13359e-15 1
f 95/169/49 108/119/49 110/69/49 91/3/49 93/170/49 

usemtl Maje9_
vt 0.34783 1
vn 0.998441 1.7456e-13 0.0558215
vt 4.81631e-16 1
vt 0 3.55271e-15
vt 0.100236 0
vt 0.176215 3.55271e-15
vt 0.35243 8.88178e-15
vt 0.411892 3.55271e-15
vt 0.587069 3.55271e-15
vt 0.588108 3.55271e-15
vt 0.764323 8.88178e-15
vt 0.823785 3.55271e-15
vt 1 7.10543e-15
vt 0.938195 1
vt 0.816927 1
vt 0.469097 1
f 111/171/50 107/172/50 49/173/50 48/174/50 47/175/50 46/176/50 45/177/50 54/178/50 53/179/50 52/180/50 51/181/50 58/182/50 83/3/50 112/183/50 114/184/50 109/185/50 

usemtl Maje1_
vt 2.66454e-15 -2.46519e-32
vn 0.998441 -1.25359e-15 0.0558215
v 29.8472 -1.5 18.9276
f 62/186/51 115/63/51 69/3/51 65/4/51 

usemtl Maje17_
vn 0.998441 -5.12445e-16 0.0558215
v 29.985 -1.5 16.4634
vt 0.5 5.57383e-17
vt 0.5 1
vt -8.88178e-16 1
f 115/1/52 116/187/52 7/188/52 69/189/52 

f 4/3/52 7/188/52 116/187/52 1/2/52 

usemtl FrontColor
vn 0 -1 -0
v 10.9619 23.6586 -1.84441
vt -485.544 192.944
f 26/31/53 117/190/53 27/32/53

usemtl M_3_7_
v 10.9593 22.2481 -1.92817
vt 0.972072 1
vn -0.89928 8.12721e-17 0.437374
v 9.74049 22.2481 -4.27663
v 9.74049 -1.5 -4.27663
vt 1 1.47624e-17
f 118/191/54 119/4/54 120/93/54 33/192/54 31/3/54 

usemtl FrontColor
vn -2.33911e-16 -1 -1.80199e-16
vt -486.366 193.013
vt -508.788 205.894
v 9.68255 22.2481 -4.32713
vt -509.253 206.474
v 6.37937 22.2481 -7.20616
vt -535.746 239.525
v 0.959923 22.2481 -11.9297
vt -579.213 293.75
v 0.901988 22.2481 -11.9802
vt -579.678 294.33
v 12.095 22.2481 -24.084
vt -704.847 193.996
v 22.8905 22.2481 -14.6748
vt -618.261 85.9786
vt -607.513 72.5707
f 28/12/55 31/32/55 118/193/55 119/194/55 121/195/55 122/196/55 123/197/55 124/198/55 125/199/55 126/200/55 29/201/55 

v 10.3472 22.2481 -3.06839
vt -497.241 199.461
vn 3.98351e-14 -1 -1.87767e-14
f 127/202/56 119/194/56 118/193/56 31/32/56 

usemtl M_3_4_
v 6.37937 -1.5 -7.20616
vt 0 4.79777e-16
vn -0.678944 7.10673e-17 0.73419
vt 0.982763 1
f 128/203/57 120/69/57 119/3/57 121/204/57 122/4/57 

usemtl M_3_8_
vt 1 0.993946
vn -0.678944 -1.17793e-16 0.73419
vt 0.382791 0.993946
v 0.959923 -1.5 -11.9297
vt 0.382791 1.54074e-33
vt 1 4.76872e-16
f 122/205/58 123/206/58 129/207/58 128/208/58 

v 0.901988 22.3928 -11.9802
vt 0.376193 1
vn -0.678944 2.21901e-16 0.73419
v -2.4012 22.3928 -14.8592
v -2.4012 -1.5 -14.8592
vt -8.88178e-16 8.68755e-16
vt 0.382791 3.91883e-16
vt 0.376193 0.993946
f 130/209/59 131/189/59 132/210/59 129/211/59 123/206/59 124/212/59 

usemtl M_3_5_
v 0.901988 23.6586 -11.9802
vn -0.678944 -7.89841e-15 0.73419
v -28.7429 23.6586 -37.8185
vt 0.228509 1
v -28.7429 22.3928 -37.8185
vt 0.228509 1.49214e-13
v -19.9623 22.3928 -30.1654
vt 0.457018 1.49214e-13
v -11.1818 22.3928 -22.5123
vt 0.685527 1.49214e-13
v -7.87858 22.3928 -19.6333
vt 0.771491 1.42109e-13
vt 0.914037 1.49214e-13
vt 1 1.49214e-13
f 133/3/60 134/213/60 135/214/60 136/215/60 137/216/60 138/217/60 131/218/60 130/219/60 

usemtl FrontColor
vt -817.446 590.95
vn 2.82826e-16 -1 -3.40809e-16
v -37.5235 23.6586 -45.4715
vt -887.871 678.806
v -26.3304 23.6586 -57.5754
vt -1013.04 578.472
v -18.6453 23.6586 -50.8771
vt -951.401 501.576
v -10.9603 23.6586 -44.1788
vt -889.763 424.681
v -3.27517 23.6586 -37.4805
vt -828.124 347.786
v 4.40992 23.6586 -30.7823
vt -766.485 270.891
v 12.095 23.6586 -24.084
v 11.9302 23.6586 -23.9058
vt -703.004 195.473
f 134/220/61 139/221/61 140/222/61 141/223/61 142/224/61 143/225/61 144/226/61 145/199/61 146/227/61 133/198/61 

usemtl M_3_5_
vn -0.678944 -1.49431e-14 0.73419
v -37.5235 22.6133 -45.4715
vt 4.44089e-16 0.174256
vt 0.228509 -3.55271e-15
f 134/213/62 139/4/62 147/228/62 135/229/62 

usemtl M_3_10_
vn -0.753848 3.09264e-16 -0.657049
v -26.3304 19.1699 -57.5754
vt 4.44089e-16 0.821582
v -26.3304 -1.5 -57.5754
v -37.5235 -1.5 -45.4715
vt 1 6.27062e-17
vt 1 0.958452
f 140/4/63 148/230/63 149/93/63 150/231/63 147/232/63 139/3/63 

usemtl Maje58_
vt 1 0.010433
vn 0.678944 -3.34186e-15 -0.73419
vt -1.77636e-15 1
v -18.6453 19.1225 -50.8771
vt -1.77636e-15 -8.88178e-16
f 148/233/64 140/3/64 141/234/64 151/235/64 

usemtl Maje35_
vn 0.678944 -1.22817e-15 -0.73419
v -10.9603 19.1225 -44.1788
vt -1.77636e-15 8.88178e-16
f 151/69/65 141/3/65 142/234/65 152/236/65 

usemtl Maje50_
vn 0.678944 -8.29861e-16 -0.73419
v -3.27517 19.1225 -37.4805
vt 0 -8.88178e-16
f 152/136/66 142/3/66 143/4/66 153/237/66 

usemtl Maje34_
vn 0.678944 4.83713e-16 -0.73419
v 4.40992 19.1225 -30.7823
f 153/69/67 143/3/67 144/4/67 154/166/67 

usemtl Maje33_
vn 0.678944 5.79564e-16 -0.73419
vt 8.88178e-16 0.689044
v 12.095 19.1225 -24.084
f 154/69/68 144/3/68 145/4/68 125/238/68 155/93/68 

usemtl FrontColor
vt -426.268 254.954
vn -0.753848 2.05819e-15 -0.657049
vt -428.63 254.954
vt -428.63 240.66
vt -268.211 240.66
vt -268.211 242.126
vt -268.211 254.954
f 146/239/69 145/240/69 125/241/69 124/242/69 130/243/69 133/244/69 

usemtl Maje32_
vt 1 0.792704
vn 0.678944 2.26061e-16 -0.73419
vt 1 0.912846
vt 0.251249 0.912846
vt 0.158308 0.912846
vt 0.158308 0.967064
v 24.2305 24.5154 -13.5068
vt 0.158308 1
v 26.513 24.5154 -11.5174
v 26.513 4.78971 -11.5174
vt 0 0.241768
v 22.8602 4.78971 -14.7011
vt 0.253348 0.241768
v 22.8602 -1.5 -14.7011
vt 0.253348 0
v 12.095 -1.5 -24.084
vt 1 1.07806e-16
v 12.095 4.60102 -24.084
vt 1 0.234515
f 155/245/70 125/246/70 126/247/70 29/248/70 30/249/70 156/250/70 157/4/70 158/251/70 159/252/70 160/253/70 161/254/70 162/255/70 

usemtl Maje36_
vt 1 0.932786
vn 0.783715 3.03173e-17 -0.621121
v 26.513 26.39 -11.5174
v 27.2353 26.39 -10.6601
vn 0.803238 -3.9307e-18 -0.595658
v 27.2353 -1.5 -10.6601
v 26.513 -1.5 -11.5174
vt 1 0.225518
f 157/256/71 163/3/71 164/4/72 165/93/72 166/42/71 158/257/71 

usemtl Maje37_
v 27.8995 26.39 -9.7597
vn 0.839685 -4.34815e-17 -0.543074
v 27.8995 -1.5 -9.7597
f 165/69/72 164/3/72 167/4/73 168/93/73 

usemtl Maje38_
v 28.5026 26.39 -8.81982
vn 0.872579 -5.7721e-17 -0.488473
v 28.5026 -1.5 -8.81982
f 168/69/73 167/3/73 169/4/74 170/93/74 

usemtl Maje39_
v 28.8599 26.39 -8.17404
vt 0.337952 1
vn 0.887665 -6.65685e-17 -0.460489
v 29.0423 26.39 -7.8444
vt -7.10543e-15 1
vn 0.901831 -6.50067e-17 -0.432089
v 29.0423 -1.5 -7.8444
f 170/69/74 169/3/74 171/258/75 172/259/76 173/93/76 

usemtl Maje40_
v 29.5163 26.39 -6.83749
vn 0.927366 -1.01068e-16 -0.374154
v 29.5163 -1.5 -6.83749
f 173/69/76 172/3/76 174/4/77 175/93/77 

usemtl Maje41_
vt 1 4.93038e-32
v 29.9225 26.39 -5.80327
vn 0.949125 -1.78036e-16 -0.314899
v 29.9225 -1.5 -5.80327
vt -7.10543e-15 0
f 175/260/77 174/3/77 176/259/78 177/261/78 

usemtl Maje42_
v 30.2594 26.39 -4.74603
vn 0.967059 -2.26044e-16 -0.254551
v 30.2594 -1.5 -4.74603
f 177/69/78 176/3/78 178/4/79 179/93/79 

usemtl Maje43_
vt 1 9.86076e-32
v 30.5255 26.39 -3.67016
vn 0.981133 -2.40395e-16 -0.193334
v 30.5255 -1.5 -3.67016
f 179/262/79 178/3/79 180/4/80 181/93/80 

usemtl Maje44_
v 30.7198 26.39 -2.58013
vn 0.99132 -2.47011e-16 -0.131471
v 30.7198 -1.5 -2.58013
vt 0 4.93038e-32
f 181/69/80 180/3/80 182/259/81 183/263/81 

usemtl Maje45_
v 30.8413 26.39 -1.48046
vt 7.10543e-15 1
vn 0.997604 -2.54835e-16 -0.0691792
v 30.8413 -1.5 -1.48046
f 183/262/81 182/3/81 184/264/82 185/93/82 

usemtl Maje46_
v 30.8879 26.39 -0.416616
vn 0.99928 -2.61577e-16 -0.0379409
v 30.8879 24.9456 -0.416616
vt 0 0.948209
v 30.8879 -1.5 -0.416616
vt 7.10543e-15 7.39557e-32
f 185/69/82 184/3/82 186/4/83 187/265/83 188/266/83 

usemtl Maje47_
vn 0.99975 -2.49317e-16 0.0223557
v 30.8646 24.9456 0.729528
vt 0 0.951335
vt 0 6.62829e-18
f 188/69/84 187/3/84 189/4/84 5/267/84 8/268/84 

usemtl Maje32_
vt 4.44089e-16 1.01896e-15
vn 0.678944 -3.7971e-16 -0.73419
vt 0.253348 1.02569e-15
f 166/269/85 160/270/85 159/252/85 158/251/85 

usemtl Maje18_
v 10.1996 4.60102 -25.7361
vn 0.678944 -4.41408e-16 -0.73419
vt 0 7.88861e-31
v 10.1996 -1.5 -25.7361
vt 1 5.74622e-17
f 190/3/86 162/4/86 161/271/86 191/272/86 

usemtl Maje30_
v 6.40869 -1.5 -29.0402
vt 0.739916 4.93038e-32
vn 0.678944 -3.10766e-17 -0.73419
v 4.40992 -1.5 -30.7823
vt 1 8.49988e-18
v 4.40992 4.60102 -30.7823
vt 1 0.295842
vt 0 0.295842
vt 0.246639 0.295842
v 6.40869 4.60102 -29.0402
vt 0.739916 0.295842
f 192/273/87 193/274/87 194/275/87 154/3/87 155/4/87 162/276/87 190/277/87 195/278/87 

usemtl Maje21_
v 2.51448 4.60102 -32.4343
vn 0.678944 -1.23668e-15 -0.73419
v 2.51448 -1.5 -32.4343
vt 1 1.14924e-16
f 196/3/88 194/4/88 193/93/88 197/279/88 

usemtl Maje29_
vn 0.678944 2.87459e-16 -0.73419
v -1.2764 4.60102 -35.7384
v -1.2764 -1.5 -35.7384
vt 0.739916 2.46519e-32
v -3.27517 -1.5 -37.4805
v -3.27517 4.60102 -37.4805
vt -8.88178e-16 0.295842
f 196/277/89 198/278/89 199/280/89 200/274/89 201/275/89 153/3/89 154/189/89 194/281/89 

usemtl Maje20_
f 197/1/86 199/279/86 198/3/86 196/4/86 

usemtl Maje22_
v -5.17061 4.60102 -39.1326
vt 0 1.57772e-30
v -5.17061 -1.5 -39.1326
vt 1 8.61933e-17
f 202/3/88 201/4/88 200/282/88 203/283/88 

usemtl Maje31_
vn 0.678944 2.95228e-16 -0.73419
v -8.96149 4.60102 -42.4367
v -8.96149 -1.5 -42.4367
vt 0.739916 0
v -10.9603 -1.5 -44.1788
v -10.9603 4.60102 -44.1788
f 201/276/90 202/277/90 204/278/90 205/284/90 206/274/90 207/275/90 152/3/90 153/4/90 

usemtl Maje23_
vt 3.55271e-15 7.88861e-31
f 203/285/86 205/279/86 204/3/86 202/4/86 

usemtl Maje26_
v -12.8557 4.60102 -45.8309
v -12.8557 -1.5 -45.8309
f 208/3/88 207/264/88 206/93/88 209/283/88 

usemtl Maje28_
vt 1.77636e-15 0.295842
vn 0.678944 6.91455e-16 -0.73419
v -16.6466 4.60102 -49.135
v -16.6466 -1.5 -49.135
v -18.6453 -1.5 -50.8771
vt 1 1.69998e-17
v -18.6453 4.60102 -50.8771
f 207/286/91 208/277/91 210/278/91 211/284/91 212/287/91 213/275/91 151/3/91 152/4/91 

usemtl Maje24_
f 209/93/86 211/283/86 210/3/86 208/4/86 

usemtl Maje27_
v -20.5408 4.60102 -52.5291
vn 0.678944 -1.23111e-15 -0.73419
v -20.5408 -1.5 -52.5291
f 214/3/92 213/264/92 212/93/92 215/283/92 

usemtl Maje51_
vt 0.246639 0.295165
vn 0.678944 1.18734e-15 -0.73419
v -24.3317 4.60102 -55.8332
vt 0.739916 0.295165
v -24.3317 -1.5 -55.8332
vt 0.739916 -3.9443e-31
v -25.3045 -1.5 -56.6811
vt 0.866499 1.78089e-16
vt 1 1.69608e-17
vt -1.77636e-15 0.99771
vt 0 0.295165
f 214/288/93 216/289/93 217/290/93 218/291/93 149/292/93 148/3/93 151/293/93 213/294/93 

usemtl Maje25_
f 215/93/86 217/283/86 216/3/86 214/4/86 

usemtl Maje19_
f 191/93/86 192/279/86 195/3/86 190/4/86 

usemtl M_3_13_
vt 1 0.990852
vn -0.678944 7.95226e-16 0.73419
vt 3.55271e-15 1
vt -1.77636e-15 -1.97215e-31
v -28.7429 -1.5 -37.8185
vt 1 1.97215e-31
f 135/295/94 147/296/94 150/297/94 219/298/94 

usemtl M_3_9_
v -19.9623 -1.5 -30.1654
vn -0.678944 1.14578e-16 0.73419
f 220/69/95 136/3/95 135/4/95 219/93/95 

usemtl M_3_12_
v -11.1818 -1.5 -22.5123
vn -0.678944 3.48696e-17 0.73419
vt -8.88178e-16 0
f 221/69/96 137/3/96 136/189/96 220/299/96 

usemtl M_3_11_
vn -0.678944 8.2552e-16 0.73419
vt -8.88178e-16 5.91646e-31
f 132/69/97 131/3/97 138/209/97 137/189/97 221/300/97 

