# Alias OBJ Model File
# Exported from SketchUp, (c) 2000-2012 Trimble Navigation Limited
# File units = meters

mtllib VietComBankNguyenHue.mtl

g Mesh1 VCBNguyenHue1 Model

usemtl M_6255575_Oscar_Hotel_at_Left_Palace_Hotel_at_Right_Ho_Chi_Minh_City
v -6.05152 25.0311 16.6233
vt 1 0.442158
vn -0.71325 0 0.700909
v -6.05152 34.0864 16.6233
vt 1 0.971474
v -14.5441 34.0864 7.98116
vt 0 0.971474
v -14.5441 25.6377 7.98116
vt 0 0.477618
f 1/1/1 2/2/1 3/3/1 4/4/1 

usemtl _2
v -3.31356 1.38857e-31 13.9327
vt 0.0779757 -6.43469e-17
vn 0.700909 1.72619e-16 0.71325
v 21.2839 1.38857e-31 -10.2391
vt 0.7785 -6.43469e-17
v 21.2839 6.74341 -10.2391
vt 0.7785 0.207462
v 21.2839 14.3077 -10.2391
vt 0.7785 0.440177
v 21.2839 21.8719 -10.2391
vt 0.7785 0.672892
v 21.2839 29.4362 -10.2391
vt 0.7785 0.905607
v 21.2839 32.6015 -10.2391
vt 0.7785 1.00299
v 21.2839 34.5744 -10.2391
vt 0.7785 1.06369
v -6.43776 34.5744 17.0029
vt -0.011 1.06369
v -6.43776 34.0864 17.0029
vt -0.011 1.04867
vt 0 1.04867
vt 0 0.770084
v -6.05152 17.6971 16.6233
vt 0 0.544452
v -6.05152 17.4668 16.6233
vt 0 0.537368
v -6.05152 10.1328 16.6233
vt 0 0.311737
v -6.05152 6.72706 16.6233
vt 0 0.206959
v -6.05152 0 16.6233
vt 0 -6.43469e-17
f 5/5/2 6/6/2 7/7/2 8/8/2 9/9/2 10/10/2 11/11/2 12/12/2 13/13/2 14/14/2 2/15/2 1/16/2 15/17/2 16/18/2 17/19/2 18/20/2 19/21/2 

usemtl M_6255575_Oscar_Hotel_at_Left_Palace_Hotel_at_Right_Ho_Chi_Minh_City7_
v 12.7913 4.45154 -18.8813
vt 1 0.660132
vn 0.71325 6.70756e-15 -0.700909
v 12.7913 6.36701 -18.8813
vt 1 0.944183
vt 0 1
vt 0 2.45773e-29
v 12.7913 0 -18.8813
vt 1 0
v 12.7913 2.828 -18.8813
vt 1 0.419372
f 20/22/3 21/23/3 7/24/3 6/25/3 22/26/3 23/27/3 

usemtl _2
v -10.6283 0 4.13304
vt -0.111523 -7.62556e-33
vn -0.700909 -1.17258e-16 -0.71325
v -14.5441 0 7.98116
vt 0 -1.09476e-47
v -14.5441 6.72706 7.98116
v -14.5441 10.5092 7.98116
vt 0 0.323317
v -14.5441 18.0735 7.98116
vt 0 0.556032
vt 0 0.788747
v -14.9304 34.0864 8.36072
vt 0.011 1.04867
v -14.9304 34.5744 8.36072
vt 0.011 1.06369
v 12.7913 34.5744 -18.8813
vt -0.7785 1.06369
v 12.7913 32.6015 -18.8813
vt -0.7785 1.00299
v 12.7913 29.0598 -18.8813
vt -0.7785 0.894028
v 12.7913 21.4955 -18.8813
vt -0.7785 0.661312
v 12.7913 13.9313 -18.8813
vt -0.7785 0.428597
vt -0.7785 0.195882
vt -0.7785 0.136952
f 24/28/4 25/29/4 26/20/4 27/30/4 28/31/4 4/32/4 3/15/4 29/33/4 30/34/4 31/35/4 32/36/4 33/37/4 34/38/4 35/39/4 21/40/4 20/41/4 

usemtl M_6255575_Oscar_Hotel_at_Left_Palace_Hotel_at_Right_Ho_Chi_Minh_City2_
v -14.164 3.71312 8.36803
vt 1 0.551967
v -14.164 6.72706 8.36803
vt 1 1
vt 0 0
v -14.164 0 8.36803
v -14.164 3.50703 8.36803
vt 1 0.521331
f 36/42/1 37/43/1 26/24/1 25/44/1 38/26/1 39/45/1 

usemtl _1
vt 2.04678 1.99523
vt 2.04678 1.55119
v -6.32942 3.50703 16.3405
vt 2.97522 1.52083
v -6.32942 6.72706 16.3405
vt 2.97522 1.99523
f 37/46/1 36/47/1 40/48/1 41/49/1 

usemtl Color_000
vt -612.992 -204.697
vn 0.0102465 0.999893 0.0104269
vt -612.992 -8.56254
v -14.9716 3.71312 9.16165
vt -631.102 -8.56254
v -7.13702 3.50703 17.1341
vt -631.102 -204.697
f 40/50/5 36/51/5 42/52/5 43/53/5 

usemtl _1
vt 2.00173 1.55119
vn -0.700909 0 -0.71325
vt 2.00173 1.52083
v -14.9716 3.50703 9.16165
vt 2.08747 1.52083
vt 2.08747 1.55119
f 36/54/6 39/55/6 44/56/6 42/57/6 

vt 2.00173 0.925373
vn -0.0132107 -0.999822 -0.0134433
v -6.32942 3.24129 16.3405
vt 2.00173 -0.924347
v -7.13702 3.24129 17.1341
vt 2.08747 -0.924347
vt 2.08747 0.925373
f 39/58/7 45/59/7 46/60/7 44/61/7 

v -6.32942 0 16.3405
vt 2.97522 1.00415
vt 2.97522 1.48168
vt 2.04678 1.52083
vt 2.04678 1.00415
f 47/62/1 45/63/1 39/64/1 38/65/1 

usemtl M_6255575_Oscar_Hotel_at_Left_Palace_Hotel_at_Right_Ho_Chi_Minh_City4_
vt 0 0.521331
vt 0 0.481828
f 18/43/1 41/24/1 40/66/1 45/67/1 47/44/1 19/26/1 

usemtl M_6255575_Oscar_Hotel_at_Left_Palace_Hotel_at_Right_Ho_Chi_Minh_City3_
vt 0.0447649 0
vt 0.967278 0
vt 1 0.90048
f 26/44/1 37/68/1 41/69/1 18/26/1 17/70/1 27/24/1 

usemtl M_6255575_Oscar_Hotel_at_Left_Palace_Hotel_at_Right_Ho_Chi_Minh_City1_
vt 0 0.0474012
vt 1 2.22045e-16
vt 1 0.923603
f 28/24/1 27/71/1 17/72/1 16/73/1 

usemtl M_6255575_Oscar_Hotel_at_Left_Palace_Hotel_at_Right_Ho_Chi_Minh_City
vt 1 0.0134586
vt 0 0.0354603
f 15/74/1 28/75/1 16/26/1

f 4/4/1 28/75/1 15/74/1 1/1/1 

usemtl _1
vt 2.00173 1.48168
vn 0.700909 0 0.71325
vt 1.91599 1.52083
vt 1.91599 1.48168
f 45/76/8 40/55/8 43/77/8 46/78/8 

f 42/47/1 44/64/1 46/63/1 43/48/1 

usemtl M_6255575_Oscar_Hotel_at_Left_Palace_Hotel_at_Right_Ho_Chi_Minh_City5_
vn 0 -1 0
vt -1.42109e-14 1
vt -1.42109e-14 0
f 3/26/9 2/43/9 14/79/9 29/80/9 

usemtl M_6255575_Oscar_Hotel_at_Left_Palace_Hotel_at_Right_Ho_Chi_Minh_City
f 30/24/1 29/3/1 14/2/1 13/43/1 

usemtl FrontColor
vt -621.654 212.58
vt -621.654 6.25278e-13
vt -1.13687e-13 6.25278e-13
vt -1.13687e-13 212.58
f 13/81/9 30/82/9 31/83/9 12/84/9 

usemtl _2
vt -0.269977 1.06369
vn 0.71325 -5.6643e-15 -0.700909
vt -0.269977 1.00299
vt -7.56754e-16 1.00299
vt -1.04084e-15 1.06369
f 12/85/10 11/86/10 32/87/10 31/88/10 

usemtl M_6255575_Oscar_Hotel_at_Left_Palace_Hotel_at_Right_Ho_Chi_Minh_City8_
vn 0.71325 -1.04003e-14 -0.700909
vt 0 0.106274
f 33/26/11 32/43/11 11/24/11 10/89/11 

usemtl M_6255575_Oscar_Hotel_at_Left_Palace_Hotel_at_Right_Ho_Chi_Minh_City6_
vt 1 4.44089e-16
vn 0.71325 1.17973e-15 -0.700909
vt 1 0.952599
f 34/90/12 33/91/12 10/24/12 9/71/12 

usemtl M_6255575_Oscar_Hotel_at_Left_Palace_Hotel_at_Right_Ho_Chi_Minh_City10_
vn 0.71325 -1.17973e-15 -0.700909
f 35/72/13 34/91/13 9/24/13 8/71/13 

usemtl M_6255575_Oscar_Hotel_at_Left_Palace_Hotel_at_Right_Ho_Chi_Minh_City9_
f 21/26/12 35/91/12 8/24/12 7/71/12 

usemtl _2
vt -0.111523 0
vt -0.7785 0.0870037
v -9.66098 0 3.18249
vt -0.13907 0
f 24/92/6 20/41/6 23/93/6 48/94/6 

vn -0.700909 -5.64382e-18 -0.71325
vt -0.7785 4.77936e-37
vt -0.13907 4.77936e-37
f 23/93/14 22/95/14 48/96/14

